<?xml version="1.0" standalone="no"?>
<!DOCTYPE svg PUBLIC "-//W3C//DTD SVG 20010904//EN"
 "http://www.w3.org/TR/2001/REC-SVG-20010904/DTD/svg10.dtd">
<svg version="1.0" xmlns="http://www.w3.org/2000/svg"
 width="800.000000pt" height="800.000000pt" viewBox="0 0 800.000000 800.000000"
 preserveAspectRatio="xMidYMid meet">
<metadata>
Created by potrace 1.16, written by Peter Selinger 2001-2019
</metadata>
<g transform="translate(0.000000,800.000000) scale(0.100000,-0.100000)"
fill="#000000" stroke="none">
<path d="M0 4000 l0 -4000 4000 0 4000 0 0 4000 0 4000 -4000 0 -4000 0 0
-4000z m5592 -2343 c18 -8 43 -26 56 -40 l23 -25 -38 -36 c-44 -42 -50 -43
-98 -15 -48 29 -116 22 -153 -14 -29 -29 -46 -110 -30 -142 30 -59 79 -83 144
-71 l34 7 0 64 0 65 65 0 65 0 0 -101 0 -100 -57 -27 c-48 -22 -72 -26 -143
-26 -75 0 -92 3 -132 27 -109 64 -149 164 -117 292 13 50 71 114 127 141 71
34 176 34 254 1z m-4142 13 c20 -5 44 -16 54 -23 16 -12 16 -15 -3 -60 -11
-26 -24 -47 -29 -47 -5 0 -26 7 -45 15 -63 26 -147 15 -147 -20 0 -19 11 -24
96 -45 122 -30 164 -67 164 -146 0 -65 -39 -114 -114 -141 -63 -23 -246 -2
-284 32 -10 9 -8 20 8 58 23 51 30 54 84 32 45 -19 141 -24 157 -8 20 20 2 41
-43 53 -131 35 -148 43 -178 76 -59 67 -31 166 60 212 49 24 155 30 220 12z
m469 -3 l44 -2 1 -40 c3 -62 -3 -65 -126 -65 l-109 0 3 -32 3 -33 100 -5 100
-5 2 -30 c5 -74 3 -75 -108 -75 l-100 0 3 -32 3 -33 118 -3 c83 -2 117 -6 118
-15 1 -7 0 -27 -1 -44 -3 -52 15 -39 45 35 15 37 45 104 67 150 21 46 38 86
38 89 0 4 14 37 32 75 l31 69 71 -3 70 -3 64 -140 c79 -175 132 -301 132 -314
0 -7 -27 -11 -68 -11 l-69 0 -19 43 -19 42 -93 3 -92 3 -20 -45 -19 -45 -265
0 -266 -1 0 228 c0 130 4 232 9 238 9 8 179 9 320 1z m1453 1 c21 -6 54 -25
74 -42 33 -29 34 -32 19 -53 -8 -12 -28 -31 -44 -42 l-28 -20 -33 24 c-68 50
-164 23 -189 -53 -28 -84 17 -160 101 -169 35 -4 50 0 81 21 43 29 54 27 101
-23 l29 -30 -32 -30 c-18 -17 -52 -36 -74 -42 -23 -6 -51 -14 -61 -18 -24 -9
-131 10 -167 30 -92 50 -135 130 -127 242 3 47 11 72 32 104 30 45 87 89 132
103 43 12 141 12 186 -2z m2496 -231 l2 -238 -67 3 -68 3 -3 232 c-3 262 -9
242 83 240 l50 -2 3 -238z m236 195 c49 -55 88 -102 120 -145 15 -21 31 -36
34 -33 3 3 6 52 6 108 l1 103 68 3 67 3 0 -236 0 -235 -54 0 -55 0 -98 117
-98 117 -3 -117 -3 -118 -67 3 -67 3 -3 215 c-1 118 0 225 3 237 5 20 10 21
60 17 49 -4 59 -9 89 -42z m756 -17 l0 -55 -115 0 c-69 0 -115 -4 -116 -10 -1
-5 -1 -17 -1 -25 0 -8 0 -19 1 -25 0 -6 43 -10 104 -10 l103 0 -6 -52 -5 -52
-97 3 -98 3 0 -41 0 -41 120 0 120 0 0 -55 0 -55 -190 0 -189 0 -3 227 c-2
151 1 230 8 237 7 7 71 10 187 8 l177 -3 0 -54z m-3957 26 c91 -56 104 -205
23 -268 -14 -12 -26 -24 -26 -28 0 -3 20 -35 45 -71 25 -35 45 -66 45 -69 0
-3 -34 -5 -77 -3 l-76 3 -40 58 c-34 51 -43 57 -73 57 l-34 0 0 -60 0 -60 -70
0 -70 0 0 236 0 236 158 -4 c144 -3 160 -5 195 -27z m759 -53 l3 -83 82 -3 82
-3 3 83 3 83 64 3 c45 2 67 -1 72 -10 10 -15 12 -308 3 -397 l-7 -61 -68 0
-69 0 0 90 0 90 -80 0 c-44 0 -80 -3 -81 -7 0 -5 -1 -44 -3 -88 l-2 -80 -72
-3 -72 -3 0 236 0 235 70 0 69 0 3 -82z m958 27 l0 -55 -116 0 -115 0 3 -32 3
-33 97 -3 96 -3 4 -49 c4 -59 2 -60 -119 -60 l-83 0 0 -35 0 -35 120 0 120 0
0 -55 0 -55 -190 0 -190 0 0 235 0 235 185 0 185 0 0 -55z m221 17 c48 -54 68
-79 117 -141 l42 -53 0 116 0 116 69 0 c38 0 71 -4 73 -10 2 -5 2 -111 0 -235
l-3 -225 -59 0 -59 0 -93 116 -93 117 -3 -117 -3 -117 -67 3 -67 3 -3 233 -2
232 59 0 c56 0 60 -2 92 -38z m2117 -1029 l2 -413 -2949 0 -2949 0 -5 21 c-8
30 -9 700 -1 759 l7 50 2946 -2 2946 -3 3 -412z"/>
<path d="M2697 1553 c-10 -9 -8 -96 2 -112 6 -10 22 -12 56 -9 52 6 69 19 79
60 9 40 -25 68 -84 68 -26 0 -50 -3 -53 -7z"/>
<path d="M1335 801 c-126 -33 -195 -131 -182 -258 13 -126 127 -212 267 -201
129 10 212 86 227 206 11 94 -41 188 -129 233 -42 22 -137 32 -183 20z m141
-116 c62 -40 68 -141 13 -208 -28 -34 -34 -37 -85 -37 -67 0 -97 18 -118 71
-32 80 -17 140 48 180 37 24 101 21 142 -6z"/>
<path d="M5970 801 c-75 -16 -154 -80 -176 -143 -19 -50 -16 -131 5 -180 23
-54 91 -114 145 -129 57 -16 163 -6 211 19 167 85 164 326 -5 412 -47 24 -125
33 -180 21z m152 -130 c50 -56 47 -149 -8 -205 -38 -37 -119 -37 -163 0 -59
49 -65 149 -13 204 32 33 53 40 112 35 34 -2 50 -10 72 -34z"/>
<path d="M1780 575 l0 -225 63 0 62 0 0 57 0 58 85 6 c124 9 153 25 185 102
29 70 14 131 -45 180 -44 38 -89 47 -227 47 l-123 0 0 -225z m245 119 c36 -17
43 -32 37 -77 -6 -37 -49 -59 -110 -55 l-47 3 -3 58 c-2 35 2 64 9 73 15 19
73 18 114 -2z"/>
<path d="M2254 786 c-3 -8 -4 -29 -2 -48 l3 -33 72 -3 c61 -2 72 -6 71 -20 -1
-9 0 -88 0 -174 l2 -158 58 0 57 0 -3 137 c-2 76 1 156 6 178 l8 40 65 0 64 0
3 48 3 47 -201 0 c-163 0 -202 -3 -206 -14z"/>
<path d="M2770 575 l0 -225 60 0 60 0 0 225 0 225 -60 0 -60 0 0 -225z"/>
<path d="M3047 786 c-3 -8 -5 -108 -4 -223 l2 -208 58 -3 57 -3 0 117 0 117
28 -39 c15 -21 36 -56 47 -77 26 -51 52 -77 74 -77 17 0 64 61 112 147 13 24
28 42 33 40 5 -2 8 -53 7 -115 l-2 -112 55 0 56 0 0 225 0 225 -49 0 -49 0
-63 -107 c-69 -118 -91 -152 -100 -153 -6 0 -70 97 -125 192 l-39 68 -46 0
c-32 0 -49 -5 -52 -14z"/>
<path d="M3730 575 l0 -225 60 0 60 0 0 225 0 225 -60 0 -60 0 0 -225z"/>
<path d="M3990 750 l0 -50 105 0 c58 0 105 -4 105 -8 0 -5 -9 -19 -19 -31 -11
-12 -34 -40 -53 -63 -18 -23 -38 -46 -43 -52 -6 -6 -32 -38 -58 -70 -40 -50
-48 -65 -45 -95 2 -20 6 -35 11 -33 4 1 94 2 200 2 l192 0 -3 45 -4 45 -114 0
c-67 0 -114 4 -114 10 0 5 28 42 63 82 161 188 163 192 158 256 -1 9 -46 12
-191 12 l-190 0 0 -50z"/>
<path d="M4646 778 c-8 -13 -25 -45 -36 -73 -12 -27 -28 -63 -35 -80 -8 -16
-39 -85 -69 -152 l-54 -123 61 0 62 1 20 42 20 42 80 3 c106 4 118 0 140 -48
l18 -40 60 0 c43 0 58 3 54 13 -3 6 -24 55 -47 107 -24 52 -49 109 -56 127 -8
17 -32 70 -54 117 l-39 86 -55 0 c-47 0 -58 -4 -70 -22z"/>
<path d="M5012 754 l3 -47 65 -1 65 -1 3 -178 2 -177 60 0 60 0 0 163 c0 89 5
169 10 177 6 10 27 15 67 15 l58 0 3 48 3 47 -201 0 -201 0 3 -46z"/>
<path d="M5527 793 c-11 -10 -8 -428 2 -439 6 -5 34 -7 64 -6 l55 4 1 207 c1
114 -1 215 -5 224 -5 13 -19 17 -58 17 -29 0 -56 -3 -59 -7z"/>
<path d="M6410 575 l0 -225 24 -6 c13 -3 38 -4 57 -2 l34 3 3 118 c2 84 6 117
15 117 7 -1 37 -33 67 -72 30 -39 72 -91 94 -115 35 -40 42 -43 87 -43 l49 0
0 225 0 225 -60 0 -59 0 -3 -122 c-3 -109 -5 -120 -18 -105 -8 9 -53 63 -100
121 l-85 105 -52 1 -53 0 0 -225z"/>
</g>
</svg>
